<?xml version="1.0" encoding="UTF-8" standalone="no"?>
<!-- Created with Inkscape (http://www.inkscape.org/) -->

<svg
   xmlns:dc="http://purl.org/dc/elements/1.1/"
   xmlns:cc="http://creativecommons.org/ns#"
   xmlns:rdf="http://www.w3.org/1999/02/22-rdf-syntax-ns#"
   xmlns:svg="http://www.w3.org/2000/svg"
   xmlns="http://www.w3.org/2000/svg"
   xmlns:sodipodi="http://sodipodi.sourceforge.net/DTD/sodipodi-0.dtd"
   xmlns:inkscape="http://www.inkscape.org/namespaces/inkscape"
   id="svg3086"
   version="1.1"
   inkscape:version="0.48.4 r9939"
   width="500"
   height="180"
   xml:space="preserve"
   sodipodi:docname="tanglu-logo-big-vector.svg"><metadata
     id="metadata3092"><rdf:RDF><cc:Work
         rdf:about=""><dc:format>image/svg+xml</dc:format><dc:type
           rdf:resource="http://purl.org/dc/dcmitype/StillImage" /><dc:title /></cc:Work></rdf:RDF></metadata><defs
     id="defs3090">

<filter
   id="filter6370"
   inkscape:label="Drop Shadow"
   color-interpolation-filters="sRGB"><feFlood
     id="feFlood6372"
     flood-opacity="0.5"
     flood-color="rgb(0,0,0)"
     result="flood" /><feComposite
     in2="SourceGraphic"
     id="feComposite6374"
     in="flood"
     operator="in"
     result="composite1" /><feGaussianBlur
     id="feGaussianBlur6376"
     stdDeviation="20"
     result="blur" /><feOffset
     id="feOffset6378"
     dx="20"
     dy="20"
     result="offset" /><feComposite
     in2="offset"
     id="feComposite6380"
     in="SourceGraphic"
     operator="over"
     result="composite2" /></filter>











</defs><sodipodi:namedview
     pagecolor="#ffffff"
     bordercolor="#666666"
     borderopacity="1"
     objecttolerance="10"
     gridtolerance="10"
     guidetolerance="10"
     inkscape:pageopacity="0"
     inkscape:pageshadow="2"
     inkscape:window-width="1366"
     inkscape:window-height="720"
     id="namedview3088"
     showgrid="false"
     inkscape:zoom="0.99018581"
     inkscape:cx="37.936132"
     inkscape:cy="197.03156"
     inkscape:window-x="0"
     inkscape:window-y="0"
     inkscape:window-maximized="1"
     inkscape:current-layer="g3094"
     showguides="true"
     inkscape:guide-bbox="true" /><g
     id="g3094"
     inkscape:groupmode="layer"
     inkscape:label="Layer"
     transform="matrix(0.125,0,0,-0.125,0,180)"
     style="display:inline">






























































































































































































































































































































































































































































































































































































































































































































































































































































































































































































































<g
   id="g4573"
   transform="matrix(1.2575318,0,0,1.2575318,-8540.7183,-16176.282)"
   inkscape:export-filename="/home/konj/Tanglu LOGO/text4548.png"
   inkscape:export-xdpi="90"
   inkscape:export-ydpi="90"><path
     id="path4552"
     d="m 7470.748,13945 c -44.432,0 -87.402,-6.825 -128,-19.25 4.896,0.195 9.953,0.251 15.5,0.251 35.438,0 58.722,0.945 77,1 30.47,0.09 46.859,-2.534 81,-18 54.633,-24.746 95.861,-15.598 134.25,-37.25 38.389,-21.652 63.47,-72.522 93,-105 29.53,-32.478 54.632,-51.044 47.25,-116 -7.384,-64.957 -17.562,-57.416 -5.75,-110 11.813,-52.584 -13.299,-106.598 -16.25,-128.25 -1.26,-9.232 -10.536,-29.473 -23.5,-51.5 -2.357,-21.854 -8.159,-39.465 -22.25,-58.25 -30.116,-40.15 -60.218,-77.558 -109.5,-100.5 -49.282,-22.943 -114.956,-43 -161.5,-43 -46.544,0 -71.181,23.043 -112.25,40.25 -41.068,17.207 -68.371,60.115 -95.75,106 -4.757,7.972 -9.552,13.994 -14,19 10.406,-45.961 22.916,-101.614 50.5,-120 32.483,-21.652 31.104,-61.831 100.5,-75.75 69.396,-13.919 42.886,-46.419 130,-32.5 87.114,13.919 185.829,29.348 206.5,51 20.672,21.652 65.148,44.882 90.25,82 25.1,37.118 78.073,71.259 82.5,120.75 4.431,49.491 28.095,88.085 34,126.75 0.584,3.846 0.952,7.757 1.5,11.75 -10.304,253.962 -210.009,456.5 -455,456.5 z"
     style="color:#000000;fill:#004664;fill-opacity:1;fill-rule:evenodd;stroke:none;marker:none;visibility:visible;display:inline;overflow:visible;enable-background:accumulate"
     inkscape:connector-curvature="0"
     inkscape:export-filename="/home/konj/Tanglu LOGO/path3935.png"
     inkscape:export-xdpi="90"
     inkscape:export-ydpi="90" /><path
     id="path4554"
     transform="matrix(8,0,0,-8,0,7920)"
     d="m 932.65625,-740.34375 c -1.04595,0.0429 -2.31244,0.19281 -3.84375,0.4375 -10.88925,1.73987 -23.26025,3.6685 -25.84375,6.375 -2.58412,2.7065 -8.11262,5.61025 -11.25,10.25 -3.13762,4.63975 -9.79,8.87613 -10.34375,15.0625 -0.55363,6.18625 -3.51175,11.01062 -4.25,15.84375 -0.063,0.409 -0.098,0.82762 -0.15625,1.25 0.0471,1.27086 0.15949,2.53203 0.28125,3.78125 l -7.78125,6.53125 -0.1875,0.15625 c -0.50688,0.469 -0.87075,1.00813 -1.0625,1.5625 -0.20237,0.587 -0.22838,1.20037 -0.0937,1.8125 0.1345,0.61213 0.41875,1.18512 0.875,1.75 0.45613,0.565 1.0815,1.08587 1.84375,1.53125 0.19012,0.11112 0.363,0.21575 0.5625,0.3125 L 882.5,-667.75 c 0.54672,1.19576 1.13099,2.38126 1.75,3.53125 l -4.0625,9.40625 -0.0313,0.0937 c -0.133,0.325 -0.19525,0.66225 -0.1875,0.9375 0.009,0.291 0.0702,0.53913 0.21875,0.75 0.14863,0.211 0.35375,0.36288 0.625,0.46875 0.27138,0.10575 0.62337,0.14925 1,0.125 0.094,-0.006 0.18575,-0.0169 0.28125,-0.0313 l 9.875,-0.625 c 2.53942,2.88947 5.33901,5.52501 8.375,7.84375 l 0.1875,5.625 0,0.0937 c 0.0148,0.30337 0.0656,0.5975 0.15625,0.84375 0.0961,0.26075 0.21213,0.47975 0.375,0.65625 0.16287,0.17638 0.35238,0.30363 0.5625,0.375 0.21012,0.0712 0.44938,0.0859 0.6875,0.0313 0.0596,-0.0137 0.12975,-0.0412 0.1875,-0.0625 l 7.375,-1.6875 c 7.28119,3.54326 15.40851,5.53125 23.96875,5.53125 5.55737,0 10.92213,-0.85137 16,-2.40625 -0.61238,0.024 -1.24375,0.0313 -1.9375,0.0313 -11.81187,0 -12.92088,0.96813 -19.75,-2.125 -6.82888,-3.09313 -11.98262,-1.9185 -16.78125,-4.625 -4.79875,-2.7065 -7.96512,-9.0965 -11.65625,-13.15625 -3.69163,-4.05975 -6.829,-6.38037 -5.90625,-14.5 0.92287,-8.1195 2.2265,-7.14575 0.75,-13.71875 -1.4765,-6.573 1.66175,-13.356 2.03125,-16.0625 0.36888,-2.7065 6.10762,-12.93812 10.90625,-16.03125 4.79863,-3.09325 9.755,-6.59587 14,-7.5625 0.752,-0.17125 1.53813,-0.29063 2.34375,-0.40625 6.00638,-1.884 14.743,-4.63863 17.59375,-3.28125 14.71625,6.81112 17.45563,11.1135 21.5625,19 1.02675,1.97162 1.89238,3.30513 2.625,4.375 -0.26975,-1.23287 -0.61762,-2.5415 -1,-4.09375 -1.4765,-5.993 -2.97125,-15.26225 -7.03125,-17.96875 -4.06062,-2.70663 -3.85675,-7.76013 -12.53125,-9.5 -7.048,-1.41375 -6.16925,-4.35437 -11.4375,-4.46875 -0.30394,-0.007 -0.6201,-0.0143 -0.96875,0 z"
     style="color:#000000;fill:#008000;fill-opacity:1;fill-rule:evenodd;stroke:none;marker:none;visibility:visible;display:inline;overflow:visible;enable-background:accumulate"
     inkscape:connector-curvature="0" /><path
     inkscape:connector-curvature="0"
     id="path4570"
     d="m 7468.748,13676.25 c -34.509,-1.384 -89.084,-19.283 -110.5,-31.75 -26.359,-15.343 -53.003,-49.069 -87.75,-101.5 -34.748,-52.43 -11.446,-51.111 -10.5,-94 0.946,-42.888 3.144,-83.864 24.5,-113 21.356,-29.135 29.264,-55.276 61,-75 31.735,-19.723 84.287,-33.759 126.75,-39 42.463,-5.24 77.458,7.387 113.5,22 36.041,14.614 43.761,41.455 77.75,97 33.988,55.546 17.784,49.56 19.75,106.5 1.967,56.941 0.477,89.71 -58.75,176.75 -14.997,22.54 -108.158,40.784 -135.75,50 -5.173,1.728 -12.036,2.32 -20,2 z m -9.25,-107 c 19.532,1.016 31.78,-3.578 48.25,-10.75 26.352,-11.474 26.435,-2.299 46.25,-30 19.815,-27.7 31.016,-36.513 31.25,-57.75 0.233,-21.236 -0.24,-41.605 -10.5,-62.5 -10.26,-20.894 -26.416,-45.288 -41.5,-58 -15.084,-12.711 -28.908,-12.11 -46.5,-17.75 -17.593,-5.639 -37.206,0.858 -57.5,8.25 -20.295,7.394 -24.036,-4.768 -42.25,22.75 -18.213,27.519 -28.895,47.364 -31.25,63.75 -2.355,16.388 0.357,59.992 9.75,72.5 9.393,12.509 35.171,57.172 48.5,60.75 19.394,5.436 33.781,8.141 45.5,8.75 z"
     style="fill:#666666;stroke:none"
     inkscape:export-xdpi="90"
     inkscape:export-ydpi="90" /></g><g
   transform="scale(1,-1)"
   style="font-size:96px;font-style:normal;font-variant:normal;font-weight:normal;font-stretch:normal;line-height:125%;letter-spacing:0px;word-spacing:0px;fill:#000000;fill-opacity:1;stroke:none;font-family:Monospace;-inkscape-font-specification:Monospace"
   id="text4548"><path
     d="m 1584.9797,-1022.8846 0,58.40003 184.8,0 0,496.8 66.4,0 0,-496.8 185.6,0 0,-58.40003 -436.8,0"
     style="font-size:800px;font-family:Cantarell;-inkscape-font-specification:Cantarell"
     id="path3099" /><path
     d="m 2210.5874,-803.68457 c 47.9999,0 76.8,15.20003 88,45.6 4.7999,12.79999 7.2,32.00003 7.2,60 l 0,3.2 c -59.2,1.6 -107.2001,7.20001 -145.6,16.8 -50.4,13.59999 -94.4,50.40006 -94.4,114.4 0,62.39994 56.8,105.6 124,105.6 43.1999,0 82.4,-16.00003 118.4,-45.6 l 14.4,36 48.8,0 0,-250.4 c 0,-63.19994 -12.8001,-92.00003 -53.6,-119.2 -21.6,-14.39999 -55.2001,-21.6 -100,-21.6 -44.8,0 -88.0001,8.00002 -129.6,24 l 0,52 c 32.7999,-11.19999 89.6,-20.8 122.4,-20.8 m -80,232 c 0,-9.59999 3.2,-18.40001 8.8,-28 12.7999,-20.79998 34.4,-33.60001 64,-40 15.9999,-3.2 49.6,-5.6 102.4,-7.2 l 0,92 c -23.2,22.39998 -49.6001,36.80001 -80.8,42.4 -8.8,1.6 -17.6001,2.4 -25.6,2.4 -9.6,0 -19.2001,-1.6 -26.4,-4.8 -22.4,-10.39999 -42.4,-29.60003 -42.4,-56.8"
     style="font-size:800px;font-family:Cantarell;-inkscape-font-specification:Cantarell"
     id="path3101" /><path
     d="m 2725.7852,-713.28457 0,245.6 64.8,0 0,-261.6 c 0,-81.59992 -43.2001,-132 -124.8,-132 -40.8,0 -88,12.80003 -136.8,38.4 l -12.8,-28.8 -45.6,0 0,384 65.6,0 0,-310.4 c 39.2,-18.39998 76,-28 106.4,-28 62.3999,0 83.2,28.80006 83.2,92.8"
     style="font-size:800px;font-family:Cantarell;-inkscape-font-specification:Cantarell"
     id="path3103" /><path
     d="m 3163.3764,-486.08457 0,11.2 c 0,24.79997 0,42.40001 -1.6,53.6 -8,69.59993 -55.2001,112 -133.6,112 -28,0 -58.4,-6.40001 -92,-18.4 l -17.6,46.4 c 32,14.39999 80.0001,25.6 117.6,25.6 59.2,0 108.8,-20.00003 140,-49.6 38.4,-36.79996 51.2,-72.00007 51.2,-144 l 0,-404 -44.8,0 -8,22.4 -18.4,-8 c -32,-14.39999 -62.4,-21.6 -91.2,-21.6 -22.4,0 -44,4.00001 -64.8,12.8 -70.3999,29.59997 -111.2,95.2001 -111.2,193.6 0,50.39995 9.6,88.00003 32,120.8 29.6,43.19996 73.6001,72.8 140,72.8 38.4,0 69.6,-8.00002 102.4,-25.6 m -86.4,-26.4 c -20.8,0 -40,-4.80001 -57.6,-14.4 -42.3999,-23.19998 -68.8,-73.60006 -68.8,-136 0,-83.99992 40.0001,-144.8 123.2,-144.8 26.4,0 56,6.40001 89.6,20 l 0,253.6 c -24.8,13.59999 -52.8,21.6 -86.4,21.6"
     style="font-size:800px;font-family:Cantarell;-inkscape-font-specification:Cantarell"
     id="path3105" /><path
     d="m 3435.3702,-519.68457 c -49.6,0 -51.2,-25.60003 -51.2,-55.2 l 0,-429.60003 -64,0 0,452.80003 c 0.8,54.39995 32.8,92 83.2,92 37.5999,0 64,-14.40001 77.6,-19.2 l 0,-49.6 c -17.6,5.59999 -30.4,8.8 -45.6,8.8"
     style="font-size:800px;font-family:Cantarell;-inkscape-font-specification:Cantarell"
     id="path3107" /><path
     d="m 3631.3813,-606.08457 0,-245.6 -64.8,0 0,261.6 c 0,81.59992 44.0001,132 125.6,132 40.8,0 87.2,-12.80003 136,-38.4 l 12.8,28.8 45.6,0 0,-384 -65.6,0 0,310.4 c -39.2,18.39998 -75.2,28 -105.6,28 -62.3999,0 -84,-28.80006 -84,-92.8"
     style="font-size:800px;font-family:Cantarell;-inkscape-font-specification:Cantarell"
     id="path3109" /></g>



















































</g></svg>